<?xml version="1.0" encoding="utf-8"?>
<!-- Generator: Adobe Illustrator 26.0.0, SVG Export Plug-In . SVG Version: 6.00 Build 0)  -->
<svg version="1.1" id="Layer_1" xmlns="https://www.w3.org/2000/svg" xmlns:xlink="https://www.w3.org/1999/xlink" x="0px" y="0px"
	 viewBox="0 0 792 612" style="enable-background:new 0 0 792 612;" xml:space="preserve">
<style type="text/css">
	.st0{fill:#4F4F4F;}
	.st1{fill:#064F8C;}
	.st2{fill:#F7941D;}
	.st3{fill:#073E66;}
	.st4{fill:#F6B015;}
	.st5{fill:#F1F2F2;}
</style>
<g>
	<path class="st0" d="M301.8,416.7h14.9l5.2,28.4h0.2l11.7-28.4H349l4.4,28.4h0.2l12.5-28.4h14.1l-22.4,45.2H344l-5.2-30h-0.2
		l-12.6,30h-14L301.8,416.7z"/>
	<path class="st0" d="M407.5,456.3h-0.2c-3.8,4.8-9.7,6.8-15.3,6.8c-8.5,0-15.3-4.8-14.1-14c2.2-15.6,21.2-15.9,32.8-15.9
		c0.7-4.9-2.9-8.1-7.7-8.1c-4.6,0-8.6,2-12.1,5.4l-6.4-7.6c5.8-4.8,13.6-7.3,20.9-7.3c16.3,0,19.4,8.3,17.4,23.3l-3.3,23h-12.8
		L407.5,456.3z M406,442.1c-4.3,0-13.9,0.4-14.7,6.5c-0.5,3.3,2.9,4.9,6,4.9c5.5,0,11-2.9,11.7-8.5l0.5-3H406z"/>
	<path class="st0" d="M458.3,430c-1.7-2.5-4.2-3.8-7.5-3.8c-2.3,0-5.3,1-5.7,3.7c-0.9,6.7,23.4,1,21,18.2
		c-1.7,11.5-13.3,14.9-23,14.9c-6.3,0-13-1.6-16.8-6.1l9.8-9.4c2.1,3.2,4.9,4.9,9.1,4.9c3.2,0,6.5-0.8,6.8-3.3
		c1-7.3-23.3-1.1-20.9-18.3c1.5-10.6,11.6-15.3,21.1-15.3c6,0,12.4,1.5,15.9,6L458.3,430z"/>
	<path class="st0" d="M477.6,416.7H491l-0.8,6.1h0.2c2.3-3.5,7.4-7.3,14.2-7.3c6.3,0,11.2,2.6,12.8,8.1c4-5.8,8.7-8.1,15.4-8.1
		c12.3,0,14.8,8.6,13.2,19.6l-3.7,26.7h-14l3.7-26.3c0.6-4.2-0.6-7.7-5.1-7.7c-6.4,0-9,4.6-9.9,10.1l-3.3,23.9h-14l3.3-23.9
		c0.5-3.3,1.6-10.1-4.8-10.1c-7.3,0-9.1,5.7-10,11.5l-3.2,22.5h-14L477.6,416.7z"/>
</g>
<polygon class="st1" points="239.7,153 198.8,383.7 265.6,383.7 306.6,153 "/>
<path class="st2" d="M191.3,357.6l-66.3,21c-1.3,0.4-2.1,1.8-1.7,3.1h0c0.3,1.2,1.3,2,2.5,2h62.6c1.3,0,2.3-0.9,2.5-2.1l3.7-21
	C195,358.6,193.2,357,191.3,357.6z"/>
<polygon class="st3" points="334.3,383.7 343.7,383.7 373.4,214.8 364,214.8 "/>
<polygon class="st3" points="463.4,383.7 472.8,383.7 502.6,214.8 493.2,214.8 "/>
<polygon class="st3" points="570.7,315.2 565.8,342.9 588.8,437.3 599.8,437.3 "/>
<polygon class="st3" points="629.4,152.9 617.7,152.9 592.9,189.9 588.9,212.5 589.5,212.5 "/>
<polygon class="st1" points="526.6,153 320.5,153 310.8,206.7 384.2,206.7 353,383.6 413.6,383.6 444.8,206.7 500.9,206.7 "/>
<path class="st4" d="M187,246.1l85.6,59c18.8,13.4,26.3,37.7,18.4,59.4l-2.8,7.6l-90.7-63.2C152,270.6,187,246.1,187,246.1z"/>
<polygon class="st1" points="706.5,152.8 639.1,152.8 584.4,234.5 576.5,234.5 590.9,153 539,153 513.4,206.4 482.1,383.7 
	550.2,383.7 566.3,292 573.9,292 609.3,437.3 676.7,437.3 634.1,261 "/>
<path class="st2" d="M53.1,173.2l12.3-0.7l-7.4,7.1c-0.8,0.8-0.7,1,0.3,0.5c6.3-3.3,26.2-13.2,26.2-13.2c-8.5,0.1-20.8,1.2-31.6,5.7
	C51.8,172.9,51.9,173.2,53.1,173.2z"/>
<path class="st4" d="M290.3,207.7l-64-44.4c0,0-24.5-18.6-48.3-27c0,0-19.2-8.2-19.2-8.2c0,0,0,0,0,0c-9.7-5.8-28.1,0.7-41.1,6.2
	c0,0-34.4,14.3-34.4,14.3c-5.3,3.1-8.4,8.9-8.2,15c0,0,0,0.1,0,0.1c0.3,6.7,5.5,12.1,12.1,13.1l59.6,3.7c7.7,0.2,14.3-0.3,20.4-3.9
	l0,0c0,0,10.3,1.2,31.6,17.2l0,0l107,80.7c0,0,0.1,0,0.1,0l2.7-7.5C316.1,242.3,309,221.1,290.3,207.7z"/>
<path class="st2" d="M301.4,260.4L200.1,183l0,0c-21.2-16-31.6-17.2-31.6-17.2c-6.1,3.6-12.6,4.1-20.4,3.9L88.5,166
	c-5.7-0.8-10.3-5-11.6-10.3c-1.2,2.5-1.8,5.2-1.7,8c0,0,0,0.1,0,0.1c0.3,6.5,5.2,11.8,11.5,13c0.4,0.1,0.8,0.1,1.2,0.1l59,3.6
	c7.5,0.2,14.3-0.3,20.4-3.9c0,0,10.3,1.2,31.6,17.2l0,0l97,73.3l-3.3,18.5c5.7-1.7,11.4-6.1,13.4-10.8c0,0,0,0,0-0.1
	C307.6,269.5,305.8,263.7,301.4,260.4z"/>
<path class="st5" d="M115.1,149.9c0,0,5.7-5.4,10-6c4.3-0.6,7.9,0.7,8.3,3c0.3,2.3-3.4,2.7-7.7,3.3
	C121.5,150.8,115.1,149.9,115.1,149.9z"/>
<path class="st2" d="M283.8,358L204,302.4c-11-9.2-17.3-17.7-20.5-25.1c-1.9-6.2-1.7-15.3,8-26.1c0.8-0.8,1.7-0.8,3.6,0.5l0,0
	l15.9,11l3.6-20.2l-14.3-0.1c-8.4,0-13.3,3.8-13.3,3.8s-35,24.5,10.5,62.8l79.2,55.2c0.8,0.6,1.2,1.5,1,2.5l-2.9,16.2
	c5.7-1.7,11.5-5.7,13.3-10.7C290.1,366.9,288.3,361.1,283.8,358z"/>
</svg>
