<?xml version="1.0" encoding="UTF-8"?>
<svg xmlns="http://www.w3.org/2000/svg" xmlns:xlink="http://www.w3.org/1999/xlink" width="16px" height="19px" viewBox="0 0 16 19" version="1.1">
<defs>
<linearGradient id="linear0" gradientUnits="userSpaceOnUse" x1="26.648937" y1="20.603781" x2="135.66525" y2="114.39767" gradientTransform="matrix(0.0865448,0,0,0.0856466,-2.306326,-1.764643)">
<stop offset="0" style="stop-color:rgb(35.294118%,62.352941%,83.137255%);stop-opacity:1;"/>
<stop offset="1" style="stop-color:rgb(18.823529%,41.176471%,59.607843%);stop-opacity:1;"/>
</linearGradient>
<linearGradient id="linear1" gradientUnits="userSpaceOnUse" x1="150.96111" y1="192.35176" x2="112.03144" y2="137.27299" gradientTransform="matrix(0.0865448,0,0,0.0856466,-2.306326,-1.764643)">
<stop offset="0" style="stop-color:rgb(100%,83.137255%,23.137255%);stop-opacity:1;"/>
<stop offset="1" style="stop-color:rgb(100%,90.980392%,45.098039%);stop-opacity:1;"/>
</linearGradient>
<filter id="alpha" filterUnits="objectBoundingBox" x="0%" y="0%" width="100%" height="100%">
  <feColorMatrix type="matrix" in="SourceGraphic" values="0 0 0 0 1 0 0 0 0 1 0 0 0 0 1 0 0 0 1 0"/>
</filter>
<mask id="mask0">
  <g filter="url(#alpha)">
<rect x="0" y="0" width="16" height="19" style="fill:rgb(0%,0%,0%);fill-opacity:0.443137;stroke:none;"/>
  </g>
</mask>
<radialGradient id="radial0" gradientUnits="userSpaceOnUse" cx="61.518883" cy="132.28575" fx="61.518883" fy="132.28575" r="29.036913" gradientTransform="matrix(0.00000000269086,-0.0361825,0.162257,0.0000000571741,-12.877046,21.482367)">
<stop offset="0" style="stop-color:rgb(72.156863%,72.156863%,72.156863%);stop-opacity:0.498039;"/>
<stop offset="1" style="stop-color:rgb(49.803922%,49.803922%,49.803922%);stop-opacity:0;"/>
</radialGradient>
<clipPath id="clip1">
  <rect x="0" y="0" width="16" height="19"/>
</clipPath>
<g id="surface5" clip-path="url(#clip1)">
<path style=" stroke:none;fill-rule:nonzero;fill:url(#radial0);" d="M 14.113281 19.257812 C 14.113281 18.675781 11.640625 18.207031 8.585938 18.207031 C 5.535156 18.207031 3.058594 18.675781 3.058594 19.257812 C 3.058594 19.835938 5.535156 20.308594 8.585938 20.308594 C 11.640625 20.308594 14.113281 19.835938 14.113281 19.257812 Z M 14.113281 19.257812 "/>
</g>
</defs>
<g id="surface1">
<path style=" stroke:none;fill-rule:nonzero;fill:url(#linear0);" d="M 8.449219 0 C 7.742188 0.00390625 7.070312 0.0625 6.476562 0.164062 C 4.730469 0.46875 4.414062 1.101562 4.414062 2.265625 L 4.414062 3.808594 L 8.539062 3.808594 L 8.539062 4.320312 L 2.867188 4.320312 C 1.667969 4.320312 0.617188 5.027344 0.289062 6.371094 C -0.0898438 7.910156 -0.105469 8.871094 0.289062 10.480469 C 0.582031 11.675781 1.285156 12.53125 2.484375 12.53125 L 3.902344 12.53125 L 3.902344 10.683594 C 3.902344 9.347656 5.078125 8.171875 6.476562 8.171875 L 10.597656 8.171875 C 11.746094 8.171875 12.660156 7.246094 12.660156 6.117188 L 12.660156 2.265625 C 12.660156 1.171875 11.71875 0.347656 10.597656 0.164062 C 9.890625 0.0507812 9.152344 -0.00390625 8.449219 0 Z M 6.21875 1.238281 C 6.644531 1.238281 6.992188 1.585938 6.992188 2.011719 C 6.992188 2.4375 6.644531 2.78125 6.21875 2.78125 C 5.789062 2.78125 5.445312 2.4375 5.445312 2.011719 C 5.445312 1.585938 5.789062 1.238281 6.21875 1.238281 Z M 6.21875 1.238281 "/>
<path style=" stroke:none;fill-rule:nonzero;fill:url(#linear1);" d="M 13.175781 4.320312 L 13.175781 6.117188 C 13.175781 7.507812 11.972656 8.679688 10.597656 8.679688 L 6.476562 8.679688 C 5.347656 8.679688 4.414062 9.628906 4.414062 10.734375 L 4.414062 14.585938 C 4.414062 15.679688 5.386719 16.324219 6.476562 16.640625 C 7.785156 17.015625 9.035156 17.082031 10.597656 16.640625 C 11.636719 16.34375 12.660156 15.75 12.660156 14.585938 L 12.660156 13.042969 L 8.539062 13.042969 L 8.539062 12.53125 L 14.722656 12.53125 C 15.921875 12.53125 16.367188 11.710938 16.785156 10.480469 C 17.214844 9.214844 17.199219 7.996094 16.785156 6.371094 C 16.488281 5.203125 15.921875 4.320312 14.722656 4.320312 Z M 10.859375 14.070312 C 11.285156 14.070312 11.632812 14.414062 11.632812 14.839844 C 11.632812 15.265625 11.285156 15.613281 10.859375 15.613281 C 10.429688 15.613281 10.082031 15.265625 10.082031 14.839844 C 10.082031 14.414062 10.429688 14.070312 10.859375 14.070312 Z M 10.859375 14.070312 "/>
<use xlink:href="#surface5" mask="url(#mask0)"/>
</g>
</svg>
